<svg width="10" height="7" viewBox="0 0 10 7" fill="none" xmlns="http://www.w3.org/2000/svg">
<path d="M9.03734 0.238892C9.20593 0.39827 9.30432 0.618075 9.31088 0.849979C9.31744 1.08188 9.23164 1.3069 9.07234 1.47556L4.11401 6.72556C4.03365 6.81049 3.93708 6.87846 3.83001 6.92544C3.72293 6.97243 3.60753 6.99748 3.49062 6.99911C3.3737 7.00074 3.25765 6.97892 3.14931 6.93494C3.04097 6.89096 2.94254 6.82572 2.85984 6.74306L0.23484 4.11806C0.0802804 3.95219 -0.00386326 3.7328 0.000136321 3.50612C0.00413591 3.27943 0.0959666 3.06315 0.256282 2.90283C0.416597 2.74252 0.632879 2.65069 0.859564 2.64669C1.08625 2.64269 1.30564 2.72683 1.47151 2.88139L3.46067 4.86939L7.80067 0.273892C7.96005 0.105306 8.17985 0.00691396 8.41176 0.000350634C8.64366 -0.00621269 8.86868 0.0795896 9.03734 0.238892Z" fill="#0C55BB"/>
</svg>
