<svg width="21" height="27" viewBox="0 0 21 27" fill="none" xmlns="http://www.w3.org/2000/svg">
<path d="M10.6572 25.4653L10.6436 25.4677L10.5555 25.5111L10.5307 25.5161L10.5134 25.5111L10.4253 25.4677C10.4121 25.4636 10.4022 25.4657 10.3956 25.4739L10.3906 25.4863L10.3695 26.0172L10.3757 26.042L10.3881 26.0581L10.5171 26.1499L10.5357 26.1548L10.5506 26.1499L10.6796 26.0581L10.6945 26.0382L10.6994 26.0172L10.6783 25.4876C10.675 25.4744 10.668 25.4669 10.6572 25.4653ZM10.9859 25.3251L10.9698 25.3276L10.7403 25.4429L10.7279 25.4553L10.7242 25.469L10.7465 26.0023L10.7527 26.0172L10.7627 26.0258L11.012 26.1412C11.0277 26.1453 11.0396 26.142 11.0479 26.1313L11.0529 26.1139L11.0107 25.3524C11.0066 25.3375 10.9983 25.3284 10.9859 25.3251ZM10.0991 25.3276C10.0937 25.3243 10.0871 25.3232 10.0809 25.3246C10.0747 25.326 10.0692 25.3297 10.0657 25.335L10.0582 25.3524L10.0161 26.1139C10.0169 26.1288 10.0239 26.1387 10.0371 26.1437L10.0557 26.1412L10.305 26.0258L10.3174 26.0159L10.3224 26.0023L10.3435 25.469L10.3398 25.4541L10.3273 25.4417L10.0991 25.3276Z" fill="#1F1F1F"/>
<path d="M9.92178 0C10.2379 0.00035062 10.5419 0.121392 10.7718 0.338393C11.0017 0.555394 11.14 0.851975 11.1585 1.16754C11.177 1.4831 11.0744 1.79383 10.8715 2.03624C10.6686 2.27864 10.3808 2.43443 10.0669 2.47176L9.92178 2.48045H3.72067C3.4169 2.48049 3.1237 2.59201 2.8967 2.79387C2.6697 2.99573 2.52467 3.27388 2.48913 3.57556L2.48045 3.72067V18.6033C2.48049 18.9071 2.59201 19.2003 2.79387 19.4273C2.99573 19.6543 3.27388 19.7993 3.57556 19.8349L3.72067 19.8436H9.30167C9.61778 19.8439 9.92182 19.965 10.1517 20.182C10.3815 20.399 10.5199 20.6955 10.5384 21.0111C10.5569 21.3267 10.4542 21.6374 10.2514 21.8798C10.0485 22.1222 9.76067 22.278 9.44678 22.3153L9.30167 22.324H3.72067C2.77164 22.3241 1.85846 21.9615 1.16797 21.3104C0.477477 20.6593 0.0618778 19.769 0.00620126 18.8216L5.77999e-09 18.6033V3.72067C-5.28604e-05 2.77164 0.362548 1.85846 1.01361 1.16797C1.66468 0.477477 2.55499 0.0618778 3.50239 0.00620126L3.72067 0H9.92178ZM16.9997 6.77658L20.5071 10.2852C20.7396 10.5177 20.8702 10.8331 20.8702 11.162C20.8702 11.4909 20.7396 11.8063 20.5071 12.0388L16.9997 15.5474C16.767 15.78 16.4515 15.9106 16.1225 15.9105C15.7935 15.9103 15.478 15.7795 15.2454 15.5468C15.0129 15.3141 14.8823 14.9985 14.8824 14.6695C14.8825 14.3405 15.0133 14.0251 15.2461 13.7925L16.6364 12.4022H9.92178C9.59286 12.4022 9.2774 12.2716 9.04481 12.039C8.81223 11.8064 8.68156 11.4909 8.68156 11.162C8.68156 10.8331 8.81223 10.5176 9.04481 10.285C9.2774 10.0524 9.59286 9.92178 9.92178 9.92178H16.6364L15.2461 8.53149C15.0133 8.29894 14.8825 7.98347 14.8824 7.65447C14.8823 7.32548 15.0129 7.00991 15.2454 6.7772C15.478 6.54448 15.7935 6.41368 16.1225 6.41356C16.4515 6.41344 16.767 6.54403 16.9997 6.77658Z" fill="#1F1F1F"/>
</svg>
