<svg width="29" height="29" viewBox="0 0 29 29" fill="none" xmlns="http://www.w3.org/2000/svg">
<path d="M26.5386 22.7831C26.3773 23.4765 25.9968 24.0993 25.4535 24.5594C24.8471 25.1762 24.1232 25.6653 23.3246 25.9977C22.526 26.3302 21.6689 26.4993 20.8039 26.4951H20.3713C18.5758 26.4016 16.816 25.9574 15.1912 25.1877C14.7972 25.0028 14.4142 24.83 13.9587 24.6198C12.0544 23.5443 10.3066 22.2128 8.76404 20.6625C6.75887 18.7819 5.11573 16.5494 3.91621 14.0759C3.25583 12.7265 2.811 11.2819 2.59792 9.79476C2.30021 8.24507 2.47622 6.64164 3.103 5.19342C3.49288 4.53595 3.97009 3.93437 4.52158 3.40509C4.77349 3.13029 5.0781 2.90898 5.4173 2.75432C5.7565 2.59967 6.12334 2.51484 6.496 2.50488C6.90235 2.54784 7.29604 2.6715 7.65396 2.86862C8.01189 3.06574 8.32685 3.33234 8.58037 3.6528C9.14829 4.28113 9.81287 4.8853 10.417 5.52572L11.1952 6.2918C11.6544 6.69417 11.9383 7.26088 11.9842 7.86988C11.9855 8.43055 11.7788 8.97067 11.4042 9.38755C11.1684 9.67987 10.9175 9.95977 10.6527 10.2261L10.3929 10.498C10.2416 10.6386 10.1235 10.8111 10.0473 11.0031C9.98446 11.1892 9.96271 11.3873 9.98688 11.5831C10.185 12.1196 10.4956 12.6078 10.8992 13.0138C11.5275 13.8644 12.1317 14.6051 12.8107 15.4812C13.982 16.8325 15.3705 17.9788 16.9191 18.873C17.0677 18.9938 17.2453 19.0748 17.4362 19.1074C17.6054 19.1328 17.7758 19.1074 17.9292 19.0325C18.3998 18.7806 18.8184 18.4419 19.163 18.0344C19.598 17.4979 20.2287 17.1571 20.915 17.0834C21.2445 17.0846 21.5703 17.1519 21.8733 17.2812C22.1764 17.4105 22.4504 17.5992 22.6792 17.8362C22.9611 18.0795 23.2282 18.3385 23.4803 18.6132L23.8501 19.0083L24.2331 19.3781C24.4663 19.6125 24.6887 19.8227 24.9098 20.0692C25.3126 20.4156 25.6872 20.7898 26.0335 21.1918C26.3876 21.6437 26.5664 22.2092 26.5386 22.7831Z" fill="#838383"/>
</svg>
