<svg width="174" height="174" viewBox="0 0 174 174" fill="none" xmlns="http://www.w3.org/2000/svg">
<path d="M87 10.875C71.9439 10.875 57.2259 15.3397 44.7072 23.7044C32.1885 32.0691 22.4314 43.9582 16.6697 57.8682C10.908 71.7783 9.40042 87.0844 12.3377 101.851C15.275 116.618 22.5252 130.182 33.1715 140.829C43.8178 151.475 57.382 158.725 72.1488 161.662C86.9156 164.6 102.222 163.092 116.132 157.33C130.042 151.569 141.931 141.811 150.296 129.293C158.66 116.774 163.125 102.056 163.125 87C163.125 66.8104 155.105 47.4477 140.829 33.1715C126.552 18.8953 107.19 10.875 87 10.875ZM76.125 117.396L48.9375 90.2081L57.5831 81.5625L76.125 100.104L116.417 59.8125L125.095 68.4364L76.125 117.396Z" fill="#0C55BB"/>
</svg>
